<?xml version="1.0" encoding="utf-8" ?>
<svg xmlns="http://www.w3.org/2000/svg" xmlns:xlink="http://www.w3.org/1999/xlink" width="2500" height="2500">
	<path fill="#7151A9" transform="scale(4.88281 4.88281)" d="M349.94 128.702C356.482 121.567 362.471 114.878 372.829 114.491C386.249 113.99 397.258 124.353 397.637 137.795C398.073 153.228 387.79 154.697 382.319 164.08C383.092 165.276 382.803 167.145 382.988 168.542L382.988 168.542L382.995 200.348C383.001 204.958 383.508 209.908 382.988 214.462L344.047 214.462L344.047 214.462C339.683 214.252 335.209 214.487 330.833 214.462L329.557 216.15C324.732 219.328 301.262 244.06 296.987 249.183C294.253 251.479 292.219 253.679 290.254 256.646C289.562 256.21 256.393 223.075 255.808 222.207C258.377 219.95 260.764 217.408 263.022 214.843C266.239 212.405 269.034 209.369 271.88 206.518L284.599 193.747C288.361 189.949 291.982 186.091 296.222 182.813C296.315 182.395 296.767 181.806 296.987 181.418C296.761 177.158 296.898 172.808 296.987 168.542L296.987 168.542C296.721 154.885 296.986 141.169 296.987 127.505L329.307 127.499C333.645 127.497 339.9 127.938 344.047 127.505C345.76 127.647 348.562 127.641 349.94 128.702Z"/>
	<defs>
		<linearGradient id="gradient_0" gradientUnits="userSpaceOnUse" x1="344.26581" y1="167.26169" x2="390.41544" y2="121.90955">
			<stop offset="0" stop-color="#212C38"/>
			<stop offset="1" stop-color="#543E76"/>
		</linearGradient>
	</defs>
	<path fill="url(#gradient_0)" transform="scale(4.88281 4.88281)" d="M349.94 128.702C356.482 121.567 362.471 114.878 372.829 114.491C386.249 113.99 397.258 124.353 397.637 137.795C398.073 153.228 387.79 154.697 382.319 164.08C383.092 165.276 382.803 167.145 382.988 168.542L377.42 168.542L377.42 168.542L344.047 168.542L344.047 134.718L344.484 133.976C344.241 131.814 344.401 129.68 344.047 127.505C345.76 127.647 348.562 127.641 349.94 128.702Z"/>
	<path fill="#C7ADFF" transform="scale(4.88281 4.88281)" d="M344.047 127.505C345.76 127.647 348.562 127.641 349.94 128.702C348.026 130.353 346.264 132.184 344.484 133.976C344.241 131.814 344.401 129.68 344.047 127.505Z"/>
	<path fill="#AC8BEE" transform="scale(4.88281 4.88281)" d="M377.42 168.542C379.012 166.925 380.482 165.429 382.319 164.08C383.092 165.276 382.803 167.145 382.988 168.542L377.42 168.542Z"/>
	<path fill="#573D7F" transform="scale(4.88281 4.88281)" d="M296.222 182.813C298.057 184.5 297.006 191.936 296.996 194.477L296.987 214.462C301.839 214.72 328.228 213.026 329.557 216.15C324.732 219.328 301.262 244.06 296.987 249.183C294.253 251.479 292.219 253.679 290.254 256.646C289.562 256.21 256.393 223.075 255.808 222.207C258.377 219.95 260.764 217.408 263.022 214.843C266.239 212.405 269.034 209.369 271.88 206.518L284.599 193.747C288.361 189.949 291.982 186.091 296.222 182.813Z"/>
	<path fill="#3F3649" transform="scale(4.88281 4.88281)" d="M263.022 214.843C266.721 215.294 270.534 214.874 274.255 214.858L296.987 214.843C296.449 224.313 296.426 239.747 296.987 249.183C294.253 251.479 292.219 253.679 290.254 256.646C289.562 256.21 256.393 223.075 255.808 222.207C258.377 219.95 260.764 217.408 263.022 214.843Z"/>
	<path fill="#573D7F" transform="scale(4.88281 4.88281)" d="M344.047 134.718L344.047 168.542L377.42 168.542C370.83 173.949 365.618 180.743 359.632 186.752C354.599 191.805 348.752 196.447 344.047 201.767C343.974 197.559 344.221 193.304 344.047 189.106C344.299 186.958 344.075 184.549 344.072 182.37L344.047 168.542L310.133 168.542C320.039 157.732 333.351 144.876 344.047 134.718Z"/>
	<path fill="#AC8BEE" transform="scale(4.88281 4.88281)" d="M344.047 201.767C344.247 205.897 343.499 210.407 344.047 214.462L344.047 214.462C339.683 214.252 335.209 214.487 330.833 214.462C333.098 211.242 340.833 204.596 344.047 201.767Z"/>
	<path fill="#AC8BEE" transform="scale(4.88281 4.88281)" d="M296.987 168.542C299.268 168.529 308.403 167.999 310.133 168.542C305.397 172.414 301.821 177.656 296.987 181.418C296.761 177.158 296.898 172.808 296.987 168.542L296.987 168.542Z"/>
	<path fill="#3F3649" transform="scale(4.88281 4.88281)" d="M223.694 256.646C230.561 263.306 236.967 270.563 243.774 277.319C247.909 281.423 252.619 285.102 256.605 289.311C254.03 291.882 251.496 294.519 248.849 297.014L228.033 317.57C224.245 321.341 219.756 324.92 216.904 329.46L215.467 330.338C212.74 332.295 206.093 339.48 203.989 342.246L205.599 342.504C204.796 342.485 203.993 342.446 203.191 342.504C195.373 352.854 178.077 369.091 168.24 378.677L168.24 378.677C159.716 386.479 154.099 397.595 141.254 398.153C126.839 398.781 115.533 388.192 115.2 373.739C114.95 362.889 120.893 357.878 127.756 350.705C127.685 350.08 127.716 349.518 127.756 348.893C128.252 346.792 127.974 344.626 127.756 342.504L127.756 297.014L168.24 297.014L183.028 297.014C183.584 296.877 183.913 296.634 184.383 296.325C191.87 286.453 206.706 273.649 215.731 264.452C218.276 261.735 220.974 259.185 223.694 256.646Z"/>
	<path fill="#573D7F" transform="scale(4.88281 4.88281)" d="M223.694 256.646C230.561 263.306 236.967 270.563 243.774 277.319C247.909 281.423 252.619 285.102 256.605 289.311C254.03 291.882 251.496 294.519 248.849 297.014L228.033 317.57C224.245 321.341 219.756 324.92 216.904 329.46C213.067 326.591 217.426 303.446 215.467 297.014C210.591 296.88 186.565 298.17 184.383 296.325C191.87 286.453 206.706 273.649 215.731 264.452C218.276 261.735 220.974 259.185 223.694 256.646Z"/>
	<path fill="#46325D" transform="scale(4.88281 4.88281)" d="M223.694 256.646C230.561 263.306 236.967 270.563 243.774 277.319C247.909 281.423 252.619 285.102 256.605 289.311C254.03 291.882 251.496 294.519 248.849 297.014C245.835 296.525 242.249 296.989 239.159 296.996L215.731 297.014C215.876 286.239 216.156 275.22 215.731 264.452C218.276 261.735 220.974 259.185 223.694 256.646Z"/>
	<defs>
		<linearGradient id="gradient_1" gradientUnits="userSpaceOnUse" x1="166.8237" y1="322.04697" x2="217.19287" y2="317.12253">
			<stop offset="0" stop-color="#674C87"/>
			<stop offset="1" stop-color="#856EA3"/>
		</linearGradient>
	</defs>
	<path fill="url(#gradient_1)" transform="scale(4.88281 4.88281)" d="M184.383 296.325C186.565 298.17 210.591 296.88 215.467 297.014C217.426 303.446 213.067 326.591 216.904 329.46L215.467 330.338C212.74 332.295 206.093 339.48 203.989 342.246L205.599 342.504C204.796 342.485 203.993 342.446 203.191 342.504C199.736 342.89 195.837 342.524 192.339 342.52L168.24 342.504C168.244 332.613 168 322.678 168.24 312.793C168.344 312.183 168.258 311.495 168.24 310.874C167.944 306.311 168.385 301.613 168.24 297.014L183.028 297.014C183.584 296.877 183.913 296.634 184.383 296.325Z"/>
	<path fill="#916DD5" transform="scale(4.88281 4.88281)" d="M168.24 297.014L183.028 297.014C180.054 300.265 171.194 308.947 168.24 310.874C167.944 306.311 168.385 301.613 168.24 297.014Z"/>
	<path fill="#573D7F" transform="scale(4.88281 4.88281)" d="M168.24 297.014C168.385 301.613 167.944 306.311 168.24 310.874C168.258 311.495 168.344 312.183 168.24 312.793C168.171 312.38 168.199 311.896 167.885 311.611C157.317 321.742 146.486 331.741 136.556 342.504L136.556 342.504C133.618 342.493 130.697 342.569 127.756 342.504L127.756 297.014L168.24 297.014Z"/>
	<path fill="#46325D" transform="scale(4.88281 4.88281)" d="M136.556 342.504C146.486 331.741 157.317 321.742 167.885 311.611C168.199 311.896 168.171 312.38 168.24 312.793C168 322.678 168.244 332.613 168.24 342.504L192.339 342.52C195.837 342.524 199.736 342.89 203.191 342.504C195.373 352.854 178.077 369.091 168.24 378.677C168.493 374.77 168.252 370.732 168.249 366.81L168.24 342.504L136.556 342.504Z"/>
	<path fill="#916DD5" transform="scale(4.88281 4.88281)" d="M127.756 342.504C130.697 342.569 133.618 342.493 136.556 342.504C133.48 345.089 130.901 348.23 127.756 350.705C127.685 350.08 127.716 349.518 127.756 348.893C128.252 346.792 127.974 344.626 127.756 342.504Z"/>
	<path fill="#7151A9" transform="scale(4.88281 4.88281)" d="M329.557 296.325L330.833 297.014C335.226 297.022 339.658 297.158 344.047 297.014L382.988 297.014L383 331.017C382.976 334.838 383.105 338.688 382.988 342.504C380.796 342.386 378.088 342.001 375.955 342.504C380.516 348.067 386.031 352.567 390.686 357.941C404.978 374.441 391.447 400.048 370.167 397.724C358.494 396.45 352.423 385.586 344.047 378.677C344.072 380.473 344.131 382.278 344.047 384.072L305.724 384.072C302.811 384.112 299.901 384.101 296.987 384.072L296.987 342.504L296.987 342.504C297.129 338.9 296.879 335.268 296.987 331.657C296.859 330.874 296.531 330.184 296.222 329.46C297.797 327.429 296.751 301.223 296.987 297.014C304.943 296.832 322.715 298.07 329.557 296.325Z"/>
	<defs>
		<linearGradient id="gradient_2" gradientUnits="userSpaceOnUse" x1="349.16034" y1="383.01498" x2="383.51108" y2="351.09338">
			<stop offset="0" stop-color="#23253D"/>
			<stop offset="1" stop-color="#463F64"/>
		</linearGradient>
	</defs>
	<path fill="url(#gradient_2)" transform="scale(4.88281 4.88281)" d="M344.047 342.504L375.955 342.504L375.955 342.504C380.516 348.067 386.031 352.567 390.686 357.941C404.978 374.441 391.447 400.048 370.167 397.724C358.494 396.45 352.423 385.586 344.047 378.677L344.047 378.677L344.047 342.504Z"/>
	<path fill="#573D7F" transform="scale(4.88281 4.88281)" d="M344.047 310.874C353.486 321.493 365.664 332.691 375.955 342.504L344.047 342.504L344.047 378.677C341.767 377.22 337.933 372.279 335.812 370.088L317.676 351.401C314.886 348.504 311.758 345.649 309.266 342.504L344.047 342.504L344.047 310.874Z"/>
	<path fill="#AC8BEE" transform="scale(4.88281 4.88281)" d="M330.833 297.014C335.226 297.022 339.658 297.158 344.047 297.014L344.047 310.874C340.576 307.53 333.009 300.94 330.833 297.014Z"/>
	<path fill="#916DD5" transform="scale(4.88281 4.88281)" d="M296.987 331.657C299.012 332.131 306.702 340.438 309.266 342.504C306.649 342.406 303.982 342.206 301.375 342.504C300.012 342.451 298.304 342.208 296.987 342.504L296.987 342.504C297.129 338.9 296.879 335.268 296.987 331.657Z"/>
	<path fill="#573D7F" transform="scale(4.88281 4.88281)" d="M127.756 162.487C126.53 160.388 124.555 158.927 122.781 157.314C106.261 142.295 115.7 114.415 138.62 113.641C152.53 113.171 158.813 124.419 167.843 132.797L168.24 133.976C171.597 136.266 174.522 140.04 177.347 142.97C185.19 151.106 194.264 161.658 203.191 168.542L203.191 168.542C205.335 171.021 213.246 180.524 215.467 182.283L215.731 182.283C215.36 184.699 215.656 187.429 215.687 189.89L215.756 205.161C215.759 208.303 215.98 211.741 215.467 214.843C210.883 215.02 184.202 213.796 183.028 216.15C182.608 215.514 182.14 215.005 181.607 214.462L168.24 214.462L167.843 214.462L127.756 214.462L127.756 168.542C128.083 166.503 127.759 164.535 127.756 162.487ZM134.016 168.25L134.016 168.25C132.766 166.777 131.431 165.429 130.05 164.08C129.116 167.026 131.45 168.067 134.016 168.25Z"/>
	<path fill="#3F3649" transform="scale(4.88281 4.88281)" d="M127.756 162.487C126.53 160.388 124.555 158.927 122.781 157.314C106.261 142.295 115.7 114.415 138.62 113.641C152.53 113.171 158.813 124.419 167.843 132.797L168.24 133.976C167.765 136.952 168.182 140.34 168.205 143.359L168.25 159.847C168.253 162.719 168.4 165.68 168.24 168.542L135.293 168.542L134.016 168.25C132.766 166.777 131.431 165.429 130.05 164.08L127.756 162.487Z"/>
	<defs>
		<linearGradient id="gradient_3" gradientUnits="userSpaceOnUse" x1="167.54868" y1="193.90437" x2="215.68169" y2="189.14699">
			<stop offset="0" stop-color="#624C80"/>
			<stop offset="1" stop-color="#856CA1"/>
		</linearGradient>
	</defs>
	<path fill="url(#gradient_3)" transform="scale(4.88281 4.88281)" d="M203.191 168.542L203.191 168.542C205.335 171.021 213.246 180.524 215.467 182.283L215.731 182.283C215.36 184.699 215.656 187.429 215.687 189.89L215.756 205.161C215.759 208.303 215.98 211.741 215.467 214.843C210.883 215.02 184.202 213.796 183.028 216.15C182.608 215.514 182.14 215.005 181.607 214.462L168.24 214.462L167.843 214.462C169.006 212.223 167.418 204.864 168.24 201.767L168.24 201.767L168.24 178.028C168.499 174.949 168.248 171.643 168.24 168.542C179.859 168.628 191.579 168.837 203.191 168.542Z"/>
	<path fill="#7151A9" transform="scale(4.88281 4.88281)" d="M168.24 201.767C170.478 203.945 180.657 212.876 181.607 214.462L168.24 214.462L167.843 214.462C169.006 212.223 167.418 204.864 168.24 201.767Z"/>
	<path fill="#916DD5" transform="scale(4.88281 4.88281)" d="M127.756 162.487L130.05 164.08C129.116 167.026 131.45 168.067 134.016 168.25C132.096 168.759 129.761 168.455 127.756 168.542C128.083 166.503 127.759 164.535 127.756 162.487Z"/>
	<defs>
		<linearGradient id="gradient_4" gradientUnits="userSpaceOnUse" x1="235.57295" y1="271.96396" x2="277.00888" y2="239.07419">
			<stop offset="0" stop-color="#1F2137"/>
			<stop offset="1" stop-color="#3E395E"/>
		</linearGradient>
	</defs>
	<path fill="url(#gradient_4)" transform="scale(4.88281 4.88281)" d="M215.731 182.283C227.124 192.664 236.869 205.16 248.849 214.843C250.925 217.524 253.383 219.848 255.808 222.207C256.393 223.075 289.562 256.21 290.254 256.646L291.477 257.605C293.468 259.158 295.184 261.233 296.987 263.009C304.291 272.092 320.427 287.626 329.557 296.325C322.715 298.07 304.943 296.832 296.987 297.014C296.751 301.223 297.797 327.429 296.222 329.46C286.876 318.94 274.407 306.747 264.297 297.014C261.7 294.483 259.058 291.983 256.605 289.311C252.619 285.102 247.909 281.423 243.774 277.319C236.967 270.563 230.561 263.306 223.694 256.646C221.287 253.678 218.479 250.949 215.731 248.297C212.901 245.894 210.379 242.82 207.765 240.16L192.233 224.655C189.331 221.755 186.398 218.5 183.028 216.15C184.202 213.796 210.883 215.02 215.467 214.843C215.98 211.741 215.759 208.303 215.756 205.161L215.687 189.89C215.656 187.429 215.36 184.699 215.731 182.283Z"/>
	<path fill="#573D7F" transform="scale(4.88281 4.88281)" d="M296.987 263.009C304.291 272.092 320.427 287.626 329.557 296.325C322.715 298.07 304.943 296.832 296.987 297.014C296.751 301.223 297.797 327.429 296.222 329.46C286.876 318.94 274.407 306.747 264.297 297.014C267.161 296.513 270.775 296.99 273.737 296.997L296.987 297.014L296.987 263.009Z"/>
	<path fill="#573D7F" transform="scale(4.88281 4.88281)" d="M215.731 182.283C227.124 192.664 236.869 205.16 248.849 214.843C240.777 215.978 224.613 214.698 215.731 214.843L215.749 238.218C215.752 241.434 216.161 245.144 215.731 248.297C212.901 245.894 210.379 242.82 207.765 240.16L192.233 224.655C189.331 221.755 186.398 218.5 183.028 216.15C184.202 213.796 210.883 215.02 215.467 214.843C215.98 211.741 215.759 208.303 215.756 205.161L215.687 189.89C215.656 187.429 215.36 184.699 215.731 182.283Z"/>
	<defs>
		<linearGradient id="gradient_5" gradientUnits="userSpaceOnUse" x1="252.10431" y1="168.47112" x2="261.50226" y2="121.49797">
			<stop offset="0" stop-color="#A386CD"/>
			<stop offset="1" stop-color="#D6CBE5"/>
		</linearGradient>
	</defs>
	<path fill="url(#gradient_5)" transform="scale(4.88281 4.88281)" d="M167.843 127.505C183.672 126.881 199.61 127.892 215.467 127.505L272.786 127.5C279.427 127.501 290.898 128.296 296.987 127.505C296.986 141.169 296.721 154.885 296.987 168.542L296.987 168.542C295.06 168.015 290.298 168.524 288.026 168.528L259.246 168.542L215.731 168.542C215.014 171.601 215.749 178.458 215.467 182.283C213.246 180.524 205.335 171.021 203.191 168.542L203.191 168.542C194.264 161.658 185.19 151.106 177.347 142.97C174.522 140.04 171.597 136.266 168.24 133.976L167.843 132.797C167.937 131.054 167.839 129.254 167.843 127.505Z"/>
	<path fill="#7151A9" transform="scale(4.88281 4.88281)" d="M167.843 127.505C183.672 126.881 199.61 127.892 215.467 127.505L215.467 128.702C215.306 141.909 215.069 155.355 215.731 168.542C211.812 169.12 206.953 167.821 203.191 168.542L203.191 168.542C194.264 161.658 185.19 151.106 177.347 142.97C174.522 140.04 171.597 136.266 168.24 133.976L167.843 132.797C167.937 131.054 167.839 129.254 167.843 127.505Z"/>
	<path fill="#AC8BEE" transform="scale(4.88281 4.88281)" d="M215.467 128.702C216.409 134.576 214.505 155.293 216.032 158.326L216.458 158.06C221.843 157.942 245.123 164.916 251.021 166.504L251.133 166.811C250.485 167.943 249.884 167.747 248.686 167.798L248.649 167.966C251.842 168.463 256.335 166.956 259.246 168.542L215.731 168.542C215.014 171.601 215.749 178.458 215.467 182.283C213.246 180.524 205.335 171.021 203.191 168.542C206.953 167.821 211.812 169.12 215.731 168.542C215.069 155.355 215.306 141.909 215.467 128.702Z"/>
	<defs>
		<linearGradient id="gradient_6" gradientUnits="userSpaceOnUse" x1="252.68562" y1="375.74115" x2="264.52029" y2="334.26721">
			<stop offset="0" stop-color="#9472C4"/>
			<stop offset="1" stop-color="#C7BCE0"/>
		</linearGradient>
	</defs>
	<path fill="url(#gradient_6)" transform="scale(4.88281 4.88281)" d="M205.599 342.504L203.989 342.246C206.093 339.48 212.74 332.295 215.467 330.338C215.609 334.243 214.966 338.689 215.731 342.504L290.507 342.521C292.52 342.537 295.041 342.939 296.987 342.504L296.987 342.504L296.987 384.072C294.921 383.826 292.611 384.041 290.518 384.046L277.338 384.072L216.904 384.072L215.467 384.072C212.451 384.524 205.545 384.066 202.225 384.07L168.24 384.072C168.268 382.272 168.268 380.477 168.24 378.677L168.24 378.677C178.077 369.091 195.373 352.854 203.191 342.504C203.993 342.446 204.796 342.485 205.599 342.504Z"/>
	<path fill="#573D7F" transform="scale(4.88281 4.88281)" d="M203.191 342.504C203.993 342.446 204.796 342.485 205.599 342.504L215.467 342.504L215.467 384.072C212.451 384.524 205.545 384.066 202.225 384.07L168.24 384.072C168.268 382.272 168.268 380.477 168.24 378.677L168.24 378.677C178.077 369.091 195.373 352.854 203.191 342.504Z"/>
	<path fill="#916DD5" transform="scale(4.88281 4.88281)" d="M205.599 342.504L203.989 342.246C206.093 339.48 212.74 332.295 215.467 330.338C215.609 334.243 214.966 338.689 215.731 342.504C215.805 345.862 215.188 359.08 216.044 361.11L216.125 359.779L216.468 359.487C227.644 366.019 239.906 369.915 252.199 373.629L262.458 376.646C266.493 377.838 277.431 381.962 280.679 382.447L280.899 382.637C279.743 383.206 278.548 383.633 277.338 384.072L216.904 384.072L215.467 384.072L215.467 342.504L205.599 342.504Z"/>
	<defs>
		<linearGradient id="gradient_7" gradientUnits="userSpaceOnUse" x1="127.11195" y1="255.0385" x2="168.63805" y2="256.21152">
			<stop offset="0" stop-color="#9370C5"/>
			<stop offset="1" stop-color="#C6BAE2"/>
		</linearGradient>
	</defs>
	<path fill="url(#gradient_7)" transform="scale(4.88281 4.88281)" d="M127.756 214.462L167.843 214.462L168.24 214.462L168.24 297.014L127.756 297.014L127.756 214.462Z"/>
	<defs>
		<linearGradient id="gradient_8" gradientUnits="userSpaceOnUse" x1="343.48645" y1="256.13379" x2="383.26404" y2="255.13503">
			<stop offset="0" stop-color="#B397D8"/>
			<stop offset="1" stop-color="#DBD7E5"/>
		</linearGradient>
	</defs>
	<path fill="url(#gradient_8)" transform="scale(4.88281 4.88281)" d="M344.047 214.462L382.988 214.462C382.542 240.993 382.078 270.534 382.988 297.014L344.047 297.014L344.047 214.462L344.047 214.462Z"/>
	<defs>
		<linearGradient id="gradient_9" gradientUnits="userSpaceOnUse" x1="396.01053" y1="220.25137" x2="422.3374" y2="169.5909">
			<stop offset="0" stop-color="#A889D3"/>
			<stop offset="1" stop-color="#D9D0E8"/>
		</linearGradient>
	</defs>
	<path fill="url(#gradient_9)" transform="scale(4.88281 4.88281)" d="M382.988 168.542L425.528 168.542C440.238 171.112 453.121 183.656 446.688 198.797C442.304 215.927 423.125 214.477 409.619 214.477L382.988 214.462C383.508 209.908 383.001 204.958 382.995 200.348L382.988 168.542Z"/>
	<path fill="#DAC7FF" transform="scale(4.88281 4.88281)" d="M425.528 168.542C440.238 171.112 453.121 183.656 446.688 198.797C446.469 196.704 448.802 181.556 444.296 182.897C442.485 179.668 426.353 171.519 421.495 170.246C415.981 168.801 423.595 168.89 425.214 168.601L425.528 168.542Z"/>
	<defs>
		<linearGradient id="gradient_10" gradientUnits="userSpaceOnUse" x1="389.56793" y1="346.34155" x2="428.81458" y2="294.47528">
			<stop offset="0" stop-color="#9875C6"/>
			<stop offset="1" stop-color="#CCBDE1"/>
		</linearGradient>
	</defs>
	<path fill="url(#gradient_10)" transform="scale(4.88281 4.88281)" d="M382.988 297.014L410.618 297.016C416.994 297.017 425.457 296.356 431.576 297.922C448.196 302.176 453.344 324.201 441.23 335.826C432.567 344.138 420.717 342.52 409.689 342.513L382.988 342.504C383.105 338.688 382.976 334.838 383 331.017L382.988 297.014Z"/>
	<defs>
		<linearGradient id="gradient_11" gradientUnits="userSpaceOnUse" x1="75.824211" y1="213.29106" x2="128.53722" y2="171.17395">
			<stop offset="0" stop-color="#8A6AC0"/>
			<stop offset="1" stop-color="#AD94D5"/>
		</linearGradient>
	</defs>
	<path fill="url(#gradient_11)" transform="scale(4.88281 4.88281)" d="M127.756 214.462C124.914 214.102 121.807 214.424 118.929 214.434L99.8376 214.474C93.4644 214.482 86.2144 215.064 80.0308 213.379C59.8126 207.871 59.15 177.037 78.9072 170.326C91.5504 166.032 112.738 169.618 127.384 168.571L127.756 168.542L127.756 214.462Z"/>
	<defs>
		<linearGradient id="gradient_12" gradientUnits="userSpaceOnUse" x1="76.199738" y1="341.36838" x2="128.2655" y2="298.99786">
			<stop offset="0" stop-color="#8464BD"/>
			<stop offset="1" stop-color="#AC91D4"/>
		</linearGradient>
	</defs>
	<path fill="url(#gradient_12)" transform="scale(4.88281 4.88281)" d="M127.756 342.504C125.001 342.171 121.98 342.469 119.192 342.478L101.501 342.514C91.094 342.528 79.3673 343.906 71.2633 336.029C62.4109 327.424 62.2005 312.152 71.0158 303.446C78.9802 295.581 90.0444 297.016 100.265 297.011L127.756 297.014L127.756 342.504C127.974 344.626 128.252 346.792 127.756 348.893L127.756 342.504Z"/>
	<defs>
		<linearGradient id="gradient_13" gradientUnits="userSpaceOnUse" x1="168.62604" y1="413.99533" x2="215.29517" y2="413.10596">
			<stop offset="0" stop-color="#8C67BD"/>
			<stop offset="1" stop-color="#B7A6DD"/>
		</linearGradient>
	</defs>
	<path fill="url(#gradient_13)" transform="scale(4.88281 4.88281)" d="M215.467 384.072L216.904 384.072C214.507 384.482 215.418 386.1 215.426 388.205L215.481 407.438C215.482 413.705 215.962 420.796 214.31 426.885C208.036 450.007 175.148 448.632 169.172 425.742C167.583 419.656 168.229 412.583 168.229 406.311L168.24 384.072L202.225 384.07C205.545 384.066 212.451 384.524 215.467 384.072Z"/>
	<defs>
		<linearGradient id="gradient_14" gradientUnits="userSpaceOnUse" x1="166.98552" y1="99.740868" x2="215.00716" y2="97.492638">
			<stop offset="0" stop-color="#B496DA"/>
			<stop offset="1" stop-color="#E4E2EB"/>
		</linearGradient>
	</defs>
	<path fill="url(#gradient_14)" transform="scale(4.88281 4.88281)" d="M167.843 127.505L167.839 105.49C167.849 95.0623 166.705 83.6636 174.741 75.6155C183.787 66.5564 199.151 66.8452 208.063 75.9433C219.875 88.0031 214.093 111.745 215.467 127.505C199.61 127.892 183.672 126.881 167.843 127.505Z"/>
	<defs>
		<linearGradient id="gradient_15" gradientUnits="userSpaceOnUse" x1="307.5083" y1="414.03674" x2="345.71857" y2="410.81537">
			<stop offset="0" stop-color="#9778C9"/>
			<stop offset="1" stop-color="#C9C1E2"/>
		</linearGradient>
	</defs>
	<path fill="url(#gradient_15)" transform="scale(4.88281 4.88281)" d="M344.047 384.072C344.755 397.639 346.245 426.018 337.93 435.239C332.461 441.303 318.247 446.569 311.206 441.193C290.976 432.926 297.205 401.457 296.987 384.072C299.901 384.101 302.811 384.112 305.724 384.072L344.047 384.072Z"/>
	<path fill="#916DD5" transform="scale(4.88281 4.88281)" d="M296.987 384.072C299.901 384.101 302.811 384.112 305.724 384.072C305.904 384.934 305.176 385.623 305.188 386.497C305.253 391.571 308.284 399.784 309.053 405.4C309.627 409.594 312.373 440.185 311.206 441.193C290.976 432.926 297.205 401.457 296.987 384.072Z"/>
	<defs>
		<linearGradient id="gradient_16" gradientUnits="userSpaceOnUse" x1="300.03339" y1="102.04692" x2="344.0162" y2="96.361755">
			<stop offset="0" stop-color="#BAA1DA"/>
			<stop offset="1" stop-color="#EAE9F0"/>
		</linearGradient>
	</defs>
	<path fill="url(#gradient_16)" transform="scale(4.88281 4.88281)" d="M297.424 90.0385C299.187 64.5799 335.693 61.0648 342.867 85.3409C346.599 97.9717 341.708 117.397 344.047 127.505L344.047 127.505C339.9 127.938 333.645 127.497 329.307 127.499L296.987 127.505C297.189 124.545 297.007 121.458 297.001 118.482L296.981 99.8565C296.99 96.9046 296.634 92.8586 297.424 90.0385Z"/>
	<path fill="#AC8BEE" transform="scale(4.88281 4.88281)" d="M297.424 90.0385C297.905 89.2568 297.707 88.8235 298.166 88.1116C298.196 88.153 304.111 112.088 304.259 112.901C304.768 115.709 306.787 127.202 305.557 127.249C306.522 127.719 340.426 127.736 344.047 127.505L344.047 127.505C339.9 127.938 333.645 127.497 329.307 127.499L296.987 127.505C297.189 124.545 297.007 121.458 297.001 118.482L296.981 99.8565C296.99 96.9046 296.634 92.8586 297.424 90.0385Z"/>
</svg>
